<svg xmlns="http://www.w3.org/2000/svg" width="198" height="198" class="uil-default" preserveAspectRatio="xMidYMid" viewBox="0 0 100 100"><rect width="100" height="100" x="0" y="0" fill="none" class="bk"/><rect width="7" height="20" x="46.5" y="40" fill="rgba(44,44,44,0.6)" rx="5" ry="5" transform="rotate(0 50 50) translate(0 -30)"><animate attributeName="opacity" begin="0s" dur="1s" from="1" repeatCount="indefinite" to="0"/></rect><rect width="7" height="20" x="46.5" y="40" fill="rgba(44,44,44,0.6)" rx="5" ry="5" transform="rotate(36 50 50) translate(0 -30)"><animate attributeName="opacity" begin="0.1s" dur="1s" from="1" repeatCount="indefinite" to="0"/></rect><rect width="7" height="20" x="46.5" y="40" fill="rgba(44,44,44,0.6)" rx="5" ry="5" transform="rotate(72 50 50) translate(0 -30)"><animate attributeName="opacity" begin="0.2s" dur="1s" from="1" repeatCount="indefinite" to="0"/></rect><rect width="7" height="20" x="46.5" y="40" fill="rgba(44,44,44,0.6)" rx="5" ry="5" transform="rotate(108 50 50) translate(0 -30)"><animate attributeName="opacity" begin="0.3s" dur="1s" from="1" repeatCount="indefinite" to="0"/></rect><rect width="7" height="20" x="46.5" y="40" fill="rgba(44,44,44,0.6)" rx="5" ry="5" transform="rotate(144 50 50) translate(0 -30)"><animate attributeName="opacity" begin="0.4s" dur="1s" from="1" repeatCount="indefinite" to="0"/></rect><rect width="7" height="20" x="46.5" y="40" fill="rgba(44,44,44,0.6)" rx="5" ry="5" transform="rotate(180 50 50) translate(0 -30)"><animate attributeName="opacity" begin="0.5s" dur="1s" from="1" repeatCount="indefinite" to="0"/></rect><rect width="7" height="20" x="46.5" y="40" fill="rgba(44,44,44,0.6)" rx="5" ry="5" transform="rotate(216 50 50) translate(0 -30)"><animate attributeName="opacity" begin="0.6s" dur="1s" from="1" repeatCount="indefinite" to="0"/></rect><rect width="7" height="20" x="46.5" y="40" fill="rgba(44,44,44,0.6)" rx="5" ry="5" transform="rotate(252 50 50) translate(0 -30)"><animate attributeName="opacity" begin="0.7s" dur="1s" from="1" repeatCount="indefinite" to="0"/></rect><rect width="7" height="20" x="46.5" y="40" fill="rgba(44,44,44,0.6)" rx="5" ry="5" transform="rotate(288 50 50) translate(0 -30)"><animate attributeName="opacity" begin="0.8s" dur="1s" from="1" repeatCount="indefinite" to="0"/></rect><rect width="7" height="20" x="46.5" y="40" fill="rgba(44,44,44,0.6)" rx="5" ry="5" transform="rotate(324 50 50) translate(0 -30)"><animate attributeName="opacity" begin="0.9s" dur="1s" from="1" repeatCount="indefinite" to="0"/></rect></svg>